<?xml version="1.0" encoding="utf-8"?>
<!-- Generator: Adobe Illustrator 18.1.0, SVG Export Plug-In . SVG Version: 6.00 Build 0)  -->
<svg version="1.1" id="Слой_1" xmlns="http://www.w3.org/2000/svg" xmlns:xlink="http://www.w3.org/1999/xlink" x="0px" y="0px"
	 viewBox="0 0 307.9 71.2" enable-background="new 0 0 307.9 71.2" xml:space="preserve">
<g display="none">
	<defs>
		<rect id="SVGID_1_" x="-343.2" y="-280.1" width="771.4" height="378"/>
	</defs>
	<use xlink:href="#SVGID_1_"  display="inline" overflow="visible" fill="#442D8E"/>
	<clipPath id="SVGID_2_" display="inline">
		<use xlink:href="#SVGID_1_"  overflow="visible"/>
	</clipPath>
	<g display="inline" clip-path="url(#SVGID_2_)">
		<defs>
			<rect id="SVGID_3_" x="-344" y="-279.1" width="771.4" height="378"/>
		</defs>
		<use xlink:href="#SVGID_3_"  overflow="visible" fill="#442D8E"/>
		<clipPath id="SVGID_4_">
			<use xlink:href="#SVGID_3_"  overflow="visible"/>
		</clipPath>
		
			<path clip-path="url(#SVGID_4_)" fill="#442D8E" stroke="#000000" stroke-width="8" stroke-linecap="round" stroke-linejoin="round" d="
			M-294.9-275.9H379c24.7,0,44.7,18.4,44.7,41.3V41.1c0,22.9-19.9,41.3-44.7,41.3h-673.8c-24.7,0-44.7-18.4-44.7-41.3v-275.7
			C-339.5-257.4-319.6-275.9-294.9-275.9z"/>
	</g>
</g>
<g display="none">
	<defs>
		<rect id="SVGID_5_" x="-294.3" y="-287.2" width="595" height="300"/>
	</defs>
	<clipPath id="SVGID_6_" display="inline">
		<use xlink:href="#SVGID_5_"  display="none" overflow="visible"/>
	</clipPath>
	<g display="inline" clip-path="url(#SVGID_6_)">
		<defs>
			<rect id="SVGID_7_" x="-294.3" y="-287.2" width="595" height="300"/>
		</defs>
		<clipPath id="SVGID_8_">
			<use xlink:href="#SVGID_7_"  display="none" overflow="visible"/>
		</clipPath>
		<g clip-path="url(#SVGID_8_)">
			<defs>
				<rect id="SVGID_9_" x="-220.2" y="-228.8" width="519" height="185"/>
			</defs>
			<clipPath id="SVGID_10_">
				<use xlink:href="#SVGID_9_"  display="none" overflow="visible"/>
			</clipPath>
			<polyline clip-path="url(#SVGID_10_)" fill="#FFFFFF" points="-139.7,-190.5 -139.7,-227.9 -112,-227.9 -112,-221.5 
				-132.1,-221.5 -132.1,-213.3 -113.4,-213.3 -113.4,-207 -132.1,-207 -132.1,-196.8 -111.3,-196.8 -111.3,-190.5 -139.7,-190.5 
							"/>
			<path clip-path="url(#SVGID_10_)" fill="#FFFFFF" d="M-69.7-190.5h-8.2l-3.3-8.5h-14.9l-3.1,8.5h-8l14.5-37.3h8L-69.7-190.5
				 M-83.6-205.3l-5.1-13.8l-5,13.8H-83.6z"/>
			<polyline clip-path="url(#SVGID_10_)" fill="#FFFFFF" points="-58.3,-190.5 -58.3,-221.5 -69.4,-221.5 -69.4,-227.9 
				-39.7,-227.9 -39.7,-221.5 -50.8,-221.5 -50.8,-190.5 -58.3,-190.5 			"/>
			<path clip-path="url(#SVGID_10_)" fill="#FFFFFF" d="M-33.3-190.5v-37.3h12.1c4.6,0,7.6,0.2,9,0.6c2.1,0.6,3.9,1.8,5.4,3.7
				c1.4,1.9,2.2,4.3,2.2,7.3c0,2.3-0.4,4.2-1.2,5.8c-0.8,1.6-1.9,2.8-3.2,3.7c-1.3,0.9-2.6,1.5-3.9,1.8c-1.8,0.4-4.4,0.5-7.8,0.5
				h-4.9v14.1H-33.3 M-25.8-221.5v10.6h4.1c3,0,5-0.2,6-0.6c1-0.4,1.8-1,2.4-1.8c0.6-0.8,0.9-1.8,0.9-2.9c0-1.4-0.4-2.5-1.2-3.4
				c-0.8-0.9-1.8-1.4-3-1.7c-0.9-0.2-2.7-0.3-5.4-0.3H-25.8z"/>
			<path clip-path="url(#SVGID_10_)" fill="#FFFFFF" d="M32.1-190.5h-8.2l-3.3-8.5H5.7l-3.1,8.5h-8l14.5-37.3h8L32.1-190.5
				 M18.2-205.3l-5.1-13.8l-5,13.8H18.2z"/>
			<path clip-path="url(#SVGID_10_)" fill="#FFFFFF" d="M41-227.9h26.1v37.3h-7.5v-31H48.4v15.9c0,4.6-0.1,7.8-0.5,9.6
				c-0.3,1.8-1.1,3.2-2.2,4.2c-1.2,1-3,1.5-5.5,1.5c-0.9,0-2.5-0.1-4.8-0.3v-5.8l1.7,0c1.6,0,2.6-0.2,3.2-0.6
				c0.5-0.4,0.8-1.5,0.8-3.1l0-6.4V-227.9"/>
			<path clip-path="url(#SVGID_10_)" fill="#FFFFFF" d="M76.6-227.9h7.5v14.9h10.1c4.8,0,8.2,1.1,10.3,3.3c2.1,2.2,3.2,4.9,3.2,8
				c0,2.5-0.6,4.7-1.9,6.5c-1.3,1.8-2.8,3-4.4,3.6c-1.7,0.6-4,1-7.2,1H76.6V-227.9 M84.1-196.8h7.3c2.4,0,4-0.1,4.9-0.3
				c0.9-0.2,1.7-0.8,2.5-1.6c0.7-0.8,1.1-1.8,1.1-3c0-1.7-0.6-3-1.8-3.8c-1.2-0.8-3.3-1.2-6.3-1.2h-7.7V-196.8z"/>
			<polyline clip-path="url(#SVGID_10_)" fill="#FFFFFF" points="115.5,-190.5 115.5,-227.9 123.1,-227.9 123.1,-213.2 
				137.8,-213.2 137.8,-227.9 145.4,-227.9 145.4,-190.5 137.8,-190.5 137.8,-206.9 123.1,-206.9 123.1,-190.5 115.5,-190.5 			"/>
			<path clip-path="url(#SVGID_10_)" fill="#FFFFFF" d="M154.9-227.9h7.5v14.9h10.1c2.7,0,4.9,0.4,6.8,1.1c1.9,0.7,3.5,2,4.8,3.9
				c1.3,1.9,1.9,4,1.9,6.4c0,2.5-0.7,4.7-2,6.5c-1.3,1.8-2.8,3-4.4,3.6c-1.6,0.6-4,0.9-7.1,0.9h-17.6V-227.9 M162.5-196.8h7.4
				c2.3,0,4-0.1,4.9-0.3c0.9-0.2,1.8-0.8,2.5-1.6c0.7-0.8,1.1-1.8,1.1-3c0-1.7-0.6-2.9-1.8-3.7c-1.2-0.8-3.3-1.3-6.4-1.3h-7.7
				V-196.8z M190.4-227.9h7.5v37.3h-7.5V-227.9z"/>
			<polyline clip-path="url(#SVGID_10_)" fill="#FFFFFF" points="207.3,-190.5 207.3,-227.9 235,-227.9 235,-221.5 214.9,-221.5 
				214.9,-213.3 233.6,-213.3 233.6,-207 214.9,-207 214.9,-196.8 235.7,-196.8 235.7,-190.5 207.3,-190.5 			"/>
			<polyline clip-path="url(#SVGID_10_)" fill="#FFFFFF" points="-219.9,-117.5 -219.9,-154.9 -192.3,-154.9 -192.3,-148.5 
				-212.4,-148.5 -212.4,-140.3 -193.7,-140.3 -193.7,-134 -212.4,-134 -212.4,-123.8 -191.5,-123.8 -191.5,-117.5 -219.9,-117.5 
							"/>
			<polyline clip-path="url(#SVGID_10_)" fill="#FFFFFF" points="-187.4,-117.5 -174.6,-137 -186.2,-154.9 -177.4,-154.9 
				-169.9,-142.9 -162.6,-154.9 -153.8,-154.9 -165.4,-136.7 -152.7,-117.5 -161.8,-117.5 -170,-130.4 -178.3,-117.5 -187.4,-117.5 
							"/>
			<polyline clip-path="url(#SVGID_10_)" fill="#FFFFFF" points="-147.2,-117.5 -147.2,-154.9 -139.7,-154.9 -139.7,-140.2 
				-124.9,-140.2 -124.9,-154.9 -117.4,-154.9 -117.4,-117.5 -124.9,-117.5 -124.9,-133.9 -139.7,-133.9 -139.7,-117.5 
				-147.2,-117.5 			"/>
			<path clip-path="url(#SVGID_10_)" fill="#FFFFFF" d="M-109.6-136c0-3.8,0.6-7,1.7-9.6c0.9-1.9,2-3.6,3.5-5.1
				c1.5-1.5,3.1-2.6,4.8-3.4c2.3-1,5-1.5,8-1.5c5.5,0,9.9,1.7,13.2,5.1c3.3,3.4,5,8.2,5,14.2c0,6-1.6,10.7-4.9,14.1
				c-3.3,3.4-7.6,5.1-13.1,5.1c-5.6,0-10-1.7-13.2-5.1C-107.9-125.4-109.6-130-109.6-136 M-101.8-136.2c0,4.2,1,7.4,2.9,9.6
				c2,2.2,4.4,3.3,7.4,3.3c3,0,5.5-1.1,7.4-3.3c1.9-2.2,2.9-5.4,2.9-9.7c0-4.3-0.9-7.5-2.8-9.6c-1.9-2.1-4.4-3.2-7.5-3.2
				c-3.1,0-5.6,1.1-7.5,3.2C-100.8-143.7-101.8-140.5-101.8-136.2z"/>
			<path clip-path="url(#SVGID_10_)" fill="#FFFFFF" d="M-64.5-154.9h26.1v37.3h-7.5v-31h-11.2v15.9c0,4.6-0.2,7.8-0.5,9.6
				c-0.3,1.8-1.1,3.2-2.2,4.2c-1.2,1-3,1.5-5.5,1.5c-0.9,0-2.5-0.1-4.8-0.2v-5.8l1.7,0c1.6,0,2.6-0.2,3.2-0.6
				c0.5-0.4,0.8-1.5,0.8-3.1l0-6.4V-154.9"/>
			<path clip-path="url(#SVGID_10_)" fill="#FFFFFF" d="M-30.6-136c0-3.8,0.6-7,1.7-9.6c0.9-1.9,2-3.6,3.5-5.1
				c1.5-1.5,3.1-2.6,4.8-3.4c2.3-1,5-1.5,8-1.5c5.5,0,9.9,1.7,13.2,5.1c3.3,3.4,5,8.2,5,14.2c0,6-1.6,10.7-4.9,14.1
				c-3.3,3.4-7.6,5.1-13.1,5.1c-5.6,0-10-1.7-13.2-5.1C-28.9-125.4-30.6-130-30.6-136 M-22.8-136.2c0,4.2,1,7.4,2.9,9.6
				c1.9,2.2,4.4,3.3,7.4,3.3s5.5-1.1,7.4-3.3c1.9-2.2,2.9-5.4,2.9-9.7c0-4.3-0.9-7.5-2.8-9.6c-1.9-2.1-4.4-3.2-7.5-3.2
				c-3.1,0-5.6,1.1-7.5,3.2C-21.9-143.7-22.8-140.5-22.8-136.2z"/>
			<polyline clip-path="url(#SVGID_10_)" fill="#FFFFFF" points="13.5,-154.9 38.7,-154.9 38.7,-148.6 21,-148.6 21,-117.5 
				13.5,-117.5 13.5,-154.9 			"/>
			<polyline clip-path="url(#SVGID_10_)" fill="#FFFFFF" points="44.3,-154.9 51.3,-154.9 51.3,-130 66.5,-154.9 74,-154.9 
				74,-117.5 66.9,-117.5 66.9,-141.9 51.8,-117.5 44.3,-117.5 44.3,-154.9 			"/>
			<path clip-path="url(#SVGID_10_)" fill="#FFFFFF" d="M82.6-154.9h7.5v8.9c0,2.9,0.1,4.8,0.3,5.7c0.2,0.9,0.8,1.8,1.9,2.5
				c1.1,0.7,2.6,1,4.6,1c1.6,0,3.1-0.2,4.3-0.5c1.3-0.3,2.3-0.9,3.3-1.5v-16.1h7.5v37.3h-7.5v-15c-1.5,0.7-3,1.2-4.5,1.5
				c-1.5,0.4-2.9,0.5-4.4,0.5c-3.7,0-6.8-0.9-9.3-2.6c-2.5-1.8-3.8-4.8-3.8-9.1V-154.9"/>
			<polyline clip-path="url(#SVGID_10_)" fill="#FFFFFF" points="121.4,-117.5 121.4,-154.9 149.1,-154.9 149.1,-148.5 129,-148.5 
				129,-140.3 147.7,-140.3 147.7,-134 129,-134 129,-123.8 149.8,-123.8 149.8,-117.5 121.4,-117.5 			"/>
			<path clip-path="url(#SVGID_10_)" fill="#FFFFFF" d="M181.7-131.3l7.3,2.3c-1.1,4.1-3,7.1-5.6,9.1c-2.6,2-5.9,3-9.9,3
				c-5,0-9-1.7-12.2-5.1c-3.2-3.4-4.8-8-4.8-13.9c0-6.2,1.6-11,4.8-14.5c3.2-3.4,7.4-5.2,12.7-5.2c4.6,0,8.3,1.4,11.1,4.1
				c1.7,1.6,3,3.9,3.8,6.9l-7.5,1.8c-0.4-1.9-1.4-3.5-2.8-4.6c-1.4-1.1-3.1-1.7-5.1-1.7c-2.8,0-5,1-6.7,3c-1.7,2-2.6,5.2-2.6,9.6
				c0,4.7,0.8,8.1,2.5,10.1c1.7,2,3.9,3,6.6,3c2,0,3.7-0.6,5.2-1.9C180-126.5,181-128.5,181.7-131.3"/>
			<path clip-path="url(#SVGID_10_)" fill="#FFFFFF" d="M197.1-154.9h7.5v15.9c1.7-0.2,2.8-0.6,3.4-1.3c0.6-0.7,1.5-2.6,2.8-5.8
				c1.6-4,3.1-6.6,4.7-7.5c1.6-1,4.1-1.5,7.6-1.5c0.2,0,0.5,0,1.1,0v5.6l-1.1,0c-1.5,0-2.7,0.2-3.4,0.6c-0.7,0.4-1.3,1-1.7,1.7
				c-0.4,0.8-1.1,2.4-2,4.8c-0.5,1.3-1,2.4-1.5,3.2c-0.5,0.9-1.5,1.7-2.8,2.4c1.7,0.5,3.1,1.4,4.2,2.9c1.1,1.4,2.3,3.5,3.6,6.1
				l5.1,10.2h-8.9l-4.4-9.6c-0.1-0.1-0.2-0.4-0.4-0.8c-0.1-0.1-0.4-0.7-0.9-1.8c-1-1.8-1.8-3-2.4-3.4c-0.6-0.5-1.6-0.7-2.8-0.7v16.3
				h-7.5V-154.9"/>
			<polyline clip-path="url(#SVGID_10_)" fill="#FFFFFF" points="230.5,-154.9 237.5,-154.9 237.5,-130 252.7,-154.9 260.2,-154.9 
				260.2,-117.5 253.1,-117.5 253.1,-141.9 238,-117.5 230.5,-117.5 230.5,-154.9 			"/>
			<polyline clip-path="url(#SVGID_10_)" fill="#FFFFFF" points="269.4,-117.5 269.4,-154.9 297.1,-154.9 297.1,-148.5 277,-148.5 
				277,-140.3 295.7,-140.3 295.7,-134 277,-134 277,-123.8 297.8,-123.8 297.8,-117.5 269.4,-117.5 			"/>
			<polyline clip-path="url(#SVGID_10_)" fill="#FFFFFF" points="-127.6,-81.9 -120.5,-81.9 -120.5,-57 -105.4,-81.9 -97.9,-81.9 
				-97.9,-44.5 -105,-44.5 -105,-68.9 -120.1,-44.5 -127.6,-44.5 -127.6,-81.9 			"/>
			<path clip-path="url(#SVGID_10_)" fill="#FFFFFF" d="M-64.8-58.3l7.3,2.3c-1.1,4.1-3,7.1-5.6,9.1c-2.6,2-5.9,3-9.9,3
				c-5,0-9-1.7-12.2-5.1c-3.2-3.4-4.8-8-4.8-13.9c0-6.2,1.6-11,4.8-14.5c3.2-3.4,7.4-5.1,12.7-5.1c4.6,0,8.3,1.3,11.1,4
				c1.7,1.6,3,3.9,3.8,6.9l-7.5,1.8c-0.4-1.9-1.4-3.5-2.8-4.6c-1.4-1.1-3.1-1.7-5.1-1.7c-2.8,0-5,1-6.7,3c-1.7,2-2.6,5.2-2.6,9.6
				c0,4.7,0.8,8.1,2.5,10.1c1.7,2,3.9,3,6.6,3c2,0,3.7-0.6,5.2-1.9C-66.4-53.5-65.4-55.5-64.8-58.3"/>
			<polyline clip-path="url(#SVGID_10_)" fill="#FFFFFF" points="-42.3,-44.5 -42.3,-75.5 -53.4,-75.5 -53.4,-81.9 -23.7,-81.9 
				-23.7,-75.5 -34.8,-75.5 -34.8,-44.5 -42.3,-44.5 			"/>
			<polyline clip-path="url(#SVGID_10_)" fill="#FFFFFF" points="-17.3,-44.5 -17.3,-81.9 10.3,-81.9 10.3,-75.5 -9.8,-75.5 
				-9.8,-67.3 9,-67.3 9,-61 -9.8,-61 -9.8,-50.8 11.1,-50.8 11.1,-44.5 -17.3,-44.5 			"/>
			<polyline clip-path="url(#SVGID_10_)" fill="#FFFFFF" points="18.9,-44.5 18.9,-81.9 30.2,-81.9 37,-56.4 43.7,-81.9 55,-81.9 
				55,-44.5 48,-44.5 48,-73.9 40.6,-44.5 33.3,-44.5 25.9,-73.9 25.9,-44.5 18.9,-44.5 			"/>
			<path clip-path="url(#SVGID_10_)" fill="#FFFFFF" d="M64.2-81.9h7.5v14.9h10.1c2.7,0,4.9,0.4,6.8,1.1c1.9,0.7,3.5,2,4.8,3.9
				c1.3,1.8,1.9,4,1.9,6.4c0,2.5-0.7,4.7-2,6.5c-1.3,1.8-2.8,3-4.4,3.6c-1.6,0.6-4,0.9-7.1,0.9H64.2V-81.9 M71.8-50.8h7.4
				c2.3,0,4-0.1,4.9-0.3c0.9-0.2,1.7-0.8,2.5-1.6c0.7-0.8,1.1-1.8,1.1-3c0-1.7-0.6-2.9-1.8-3.7c-1.2-0.8-3.3-1.2-6.4-1.2h-7.7V-50.8
				z M99.7-81.9h7.5v37.3h-7.5V-81.9z"/>
		</g>
	</g>
</g>
<g display="none">
	<defs>
		<rect id="SVGID_11_" x="-294.3" y="-287.2" width="595" height="300"/>
	</defs>
	<clipPath id="SVGID_12_" display="inline">
		<use xlink:href="#SVGID_11_"  display="none" overflow="visible"/>
	</clipPath>
	<g display="inline" clip-path="url(#SVGID_12_)">
		<defs>
			<rect id="SVGID_13_" x="-294.3" y="-287.2" width="595" height="300"/>
		</defs>
		<clipPath id="SVGID_14_">
			<use xlink:href="#SVGID_13_"  display="none" overflow="visible"/>
		</clipPath>
		<g clip-path="url(#SVGID_14_)">
			<defs>
				<rect id="SVGID_15_" x="-220.2" y="-228.8" width="519" height="185"/>
			</defs>
			<clipPath id="SVGID_16_">
				<use xlink:href="#SVGID_15_"  display="none" overflow="visible"/>
			</clipPath>
			<polyline clip-path="url(#SVGID_16_)" points="-139.7,-190.5 -139.7,-227.9 -112,-227.9 -112,-221.5 -132.1,-221.5 
				-132.1,-213.3 -113.4,-213.3 -113.4,-207 -132.1,-207 -132.1,-196.8 -111.3,-196.8 -111.3,-190.5 -139.7,-190.5 			"/>
			<path clip-path="url(#SVGID_16_)" d="M-69.7-190.5h-8.2l-3.3-8.5h-14.9l-3.1,8.5h-8l14.5-37.3h8L-69.7-190.5 M-83.6-205.3
				l-5.1-13.8l-5,13.8H-83.6z"/>
			<polyline clip-path="url(#SVGID_16_)" points="-58.3,-190.5 -58.3,-221.5 -69.4,-221.5 -69.4,-227.9 -39.7,-227.9 -39.7,-221.5 
				-50.8,-221.5 -50.8,-190.5 -58.3,-190.5 			"/>
			<path clip-path="url(#SVGID_16_)" d="M-33.3-190.5v-37.3h12.1c4.6,0,7.6,0.2,9,0.6c2.1,0.6,3.9,1.8,5.4,3.7
				c1.4,1.9,2.2,4.3,2.2,7.3c0,2.3-0.4,4.2-1.2,5.8c-0.8,1.6-1.9,2.8-3.2,3.7c-1.3,0.9-2.6,1.5-3.9,1.8c-1.8,0.4-4.4,0.5-7.8,0.5
				h-4.9v14.1H-33.3 M-25.8-221.5v10.6h4.1c3,0,5-0.2,6-0.6c1-0.4,1.8-1,2.4-1.8c0.6-0.8,0.9-1.8,0.9-2.9c0-1.4-0.4-2.5-1.2-3.4
				c-0.8-0.9-1.8-1.4-3-1.7c-0.9-0.2-2.7-0.3-5.4-0.3H-25.8z"/>
			<path clip-path="url(#SVGID_16_)" d="M32.1-190.5h-8.2l-3.3-8.5H5.7l-3.1,8.5h-8l14.5-37.3h8L32.1-190.5 M18.2-205.3l-5.1-13.8
				l-5,13.8H18.2z"/>
			<path clip-path="url(#SVGID_16_)" d="M41-227.9h26.1v37.3h-7.5v-31H48.4v15.9c0,4.6-0.1,7.8-0.5,9.6c-0.3,1.8-1.1,3.2-2.2,4.2
				c-1.2,1-3,1.5-5.5,1.5c-0.9,0-2.5-0.1-4.8-0.3v-5.8l1.7,0c1.6,0,2.6-0.2,3.2-0.6c0.5-0.4,0.8-1.5,0.8-3.1l0-6.4V-227.9"/>
			<path clip-path="url(#SVGID_16_)" d="M76.6-227.9h7.5v14.9h10.1c4.8,0,8.2,1.1,10.3,3.3c2.1,2.2,3.2,4.9,3.2,8
				c0,2.5-0.6,4.7-1.9,6.5c-1.3,1.8-2.8,3-4.4,3.6c-1.7,0.6-4,1-7.2,1H76.6V-227.9 M84.1-196.8h7.3c2.4,0,4-0.1,4.9-0.3
				c0.9-0.2,1.7-0.8,2.5-1.6c0.7-0.8,1.1-1.8,1.1-3c0-1.7-0.6-3-1.8-3.8c-1.2-0.8-3.3-1.2-6.3-1.2h-7.7V-196.8z"/>
			<polyline clip-path="url(#SVGID_16_)" points="115.5,-190.5 115.5,-227.9 123.1,-227.9 123.1,-213.2 137.8,-213.2 137.8,-227.9 
				145.4,-227.9 145.4,-190.5 137.8,-190.5 137.8,-206.9 123.1,-206.9 123.1,-190.5 115.5,-190.5 			"/>
			<path clip-path="url(#SVGID_16_)" d="M154.9-227.9h7.5v14.9h10.1c2.7,0,4.9,0.4,6.8,1.1c1.9,0.7,3.5,2,4.8,3.9
				c1.3,1.9,1.9,4,1.9,6.4c0,2.5-0.7,4.7-2,6.5c-1.3,1.8-2.8,3-4.4,3.6c-1.6,0.6-4,0.9-7.1,0.9h-17.6V-227.9 M162.5-196.8h7.4
				c2.3,0,4-0.1,4.9-0.3c0.9-0.2,1.8-0.8,2.5-1.6c0.7-0.8,1.1-1.8,1.1-3c0-1.7-0.6-2.9-1.8-3.7c-1.2-0.8-3.3-1.3-6.4-1.3h-7.7
				V-196.8z M190.4-227.9h7.5v37.3h-7.5V-227.9z"/>
			<polyline clip-path="url(#SVGID_16_)" points="207.3,-190.5 207.3,-227.9 235,-227.9 235,-221.5 214.9,-221.5 214.9,-213.3 
				233.6,-213.3 233.6,-207 214.9,-207 214.9,-196.8 235.7,-196.8 235.7,-190.5 207.3,-190.5 			"/>
			<polyline clip-path="url(#SVGID_16_)" points="-219.9,-117.5 -219.9,-154.9 -192.3,-154.9 -192.3,-148.5 -212.4,-148.5 
				-212.4,-140.3 -193.7,-140.3 -193.7,-134 -212.4,-134 -212.4,-123.8 -191.5,-123.8 -191.5,-117.5 -219.9,-117.5 			"/>
			<polyline clip-path="url(#SVGID_16_)" points="-187.4,-117.5 -174.6,-137 -186.2,-154.9 -177.4,-154.9 -169.9,-142.9 
				-162.6,-154.9 -153.8,-154.9 -165.4,-136.7 -152.7,-117.5 -161.8,-117.5 -170,-130.4 -178.3,-117.5 -187.4,-117.5 			"/>
			<polyline clip-path="url(#SVGID_16_)" points="-147.2,-117.5 -147.2,-154.9 -139.7,-154.9 -139.7,-140.2 -124.9,-140.2 
				-124.9,-154.9 -117.4,-154.9 -117.4,-117.5 -124.9,-117.5 -124.9,-133.9 -139.7,-133.9 -139.7,-117.5 -147.2,-117.5 			"/>
			<path clip-path="url(#SVGID_16_)" d="M-109.6-136c0-3.8,0.6-7,1.7-9.6c0.9-1.9,2-3.6,3.5-5.1c1.5-1.5,3.1-2.6,4.8-3.4
				c2.3-1,5-1.5,8-1.5c5.5,0,9.9,1.7,13.2,5.1c3.3,3.4,5,8.2,5,14.2c0,6-1.6,10.7-4.9,14.1c-3.3,3.4-7.6,5.1-13.1,5.1
				c-5.6,0-10-1.7-13.2-5.1C-107.9-125.4-109.6-130-109.6-136 M-101.8-136.2c0,4.2,1,7.4,2.9,9.6c2,2.2,4.4,3.3,7.4,3.3
				c3,0,5.5-1.1,7.4-3.3c1.9-2.2,2.9-5.4,2.9-9.7c0-4.3-0.9-7.5-2.8-9.6c-1.9-2.1-4.4-3.2-7.5-3.2c-3.1,0-5.6,1.1-7.5,3.2
				C-100.8-143.7-101.8-140.5-101.8-136.2z"/>
			<path clip-path="url(#SVGID_16_)" d="M-64.5-154.9h26.1v37.3h-7.5v-31h-11.2v15.9c0,4.6-0.2,7.8-0.5,9.6
				c-0.3,1.8-1.1,3.2-2.2,4.2c-1.2,1-3,1.5-5.5,1.5c-0.9,0-2.5-0.1-4.8-0.2v-5.8l1.7,0c1.6,0,2.6-0.2,3.2-0.6
				c0.5-0.4,0.8-1.5,0.8-3.1l0-6.4V-154.9"/>
			<path clip-path="url(#SVGID_16_)" d="M-30.6-136c0-3.8,0.6-7,1.7-9.6c0.9-1.9,2-3.6,3.5-5.1c1.5-1.5,3.1-2.6,4.8-3.4
				c2.3-1,5-1.5,8-1.5c5.5,0,9.9,1.7,13.2,5.1c3.3,3.4,5,8.2,5,14.2c0,6-1.6,10.7-4.9,14.1c-3.3,3.4-7.6,5.1-13.1,5.1
				c-5.6,0-10-1.7-13.2-5.1C-28.9-125.4-30.6-130-30.6-136 M-22.8-136.2c0,4.2,1,7.4,2.9,9.6c1.9,2.2,4.4,3.3,7.4,3.3
				s5.5-1.1,7.4-3.3c1.9-2.2,2.9-5.4,2.9-9.7c0-4.3-0.9-7.5-2.8-9.6c-1.9-2.1-4.4-3.2-7.5-3.2c-3.1,0-5.6,1.1-7.5,3.2
				C-21.9-143.7-22.8-140.5-22.8-136.2z"/>
			<polyline clip-path="url(#SVGID_16_)" points="13.5,-154.9 38.7,-154.9 38.7,-148.6 21,-148.6 21,-117.5 13.5,-117.5 
				13.5,-154.9 			"/>
			<polyline clip-path="url(#SVGID_16_)" points="44.3,-154.9 51.3,-154.9 51.3,-130 66.5,-154.9 74,-154.9 74,-117.5 66.9,-117.5 
				66.9,-141.9 51.8,-117.5 44.3,-117.5 44.3,-154.9 			"/>
			<path clip-path="url(#SVGID_16_)" d="M82.6-154.9h7.5v8.9c0,2.9,0.1,4.8,0.3,5.7c0.2,0.9,0.8,1.8,1.9,2.5c1.1,0.7,2.6,1,4.6,1
				c1.6,0,3.1-0.2,4.3-0.5c1.3-0.3,2.3-0.9,3.3-1.5v-16.1h7.5v37.3h-7.5v-15c-1.5,0.7-3,1.2-4.5,1.5c-1.5,0.4-2.9,0.5-4.4,0.5
				c-3.7,0-6.8-0.9-9.3-2.6c-2.5-1.8-3.8-4.8-3.8-9.1V-154.9"/>
			<polyline clip-path="url(#SVGID_16_)" points="121.4,-117.5 121.4,-154.9 149.1,-154.9 149.1,-148.5 129,-148.5 129,-140.3 
				147.7,-140.3 147.7,-134 129,-134 129,-123.8 149.8,-123.8 149.8,-117.5 121.4,-117.5 			"/>
			<path clip-path="url(#SVGID_16_)" d="M181.7-131.3l7.3,2.3c-1.1,4.1-3,7.1-5.6,9.1c-2.6,2-5.9,3-9.9,3c-5,0-9-1.7-12.2-5.1
				c-3.2-3.4-4.8-8-4.8-13.9c0-6.2,1.6-11,4.8-14.5c3.2-3.4,7.4-5.2,12.7-5.2c4.6,0,8.3,1.4,11.1,4.1c1.7,1.6,3,3.9,3.8,6.9
				l-7.5,1.8c-0.4-1.9-1.4-3.5-2.8-4.6c-1.4-1.1-3.1-1.7-5.1-1.7c-2.8,0-5,1-6.7,3c-1.7,2-2.6,5.2-2.6,9.6c0,4.7,0.8,8.1,2.5,10.1
				c1.7,2,3.9,3,6.6,3c2,0,3.7-0.6,5.2-1.9C180-126.5,181-128.5,181.7-131.3"/>
			<path clip-path="url(#SVGID_16_)" d="M197.1-154.9h7.5v15.9c1.7-0.2,2.8-0.6,3.4-1.3c0.6-0.7,1.5-2.6,2.8-5.8
				c1.6-4,3.1-6.6,4.7-7.5c1.6-1,4.1-1.5,7.6-1.5c0.2,0,0.5,0,1.1,0v5.6l-1.1,0c-1.5,0-2.7,0.2-3.4,0.6c-0.7,0.4-1.3,1-1.7,1.7
				c-0.4,0.8-1.1,2.4-2,4.8c-0.5,1.3-1,2.4-1.5,3.2c-0.5,0.9-1.5,1.7-2.8,2.4c1.7,0.5,3.1,1.4,4.2,2.9c1.1,1.4,2.3,3.5,3.6,6.1
				l5.1,10.2h-8.9l-4.4-9.6c-0.1-0.1-0.2-0.4-0.4-0.8c-0.1-0.1-0.4-0.7-0.9-1.8c-1-1.8-1.8-3-2.4-3.4c-0.6-0.5-1.6-0.7-2.8-0.7v16.3
				h-7.5V-154.9"/>
			<polyline clip-path="url(#SVGID_16_)" points="230.5,-154.9 237.5,-154.9 237.5,-130 252.7,-154.9 260.2,-154.9 260.2,-117.5 
				253.1,-117.5 253.1,-141.9 238,-117.5 230.5,-117.5 230.5,-154.9 			"/>
			<polyline clip-path="url(#SVGID_16_)" points="269.4,-117.5 269.4,-154.9 297.1,-154.9 297.1,-148.5 277,-148.5 277,-140.3 
				295.7,-140.3 295.7,-134 277,-134 277,-123.8 297.8,-123.8 297.8,-117.5 269.4,-117.5 			"/>
			<polyline clip-path="url(#SVGID_16_)" points="-127.6,-81.9 -120.5,-81.9 -120.5,-57 -105.4,-81.9 -97.9,-81.9 -97.9,-44.5 
				-105,-44.5 -105,-68.9 -120.1,-44.5 -127.6,-44.5 -127.6,-81.9 			"/>
			<path clip-path="url(#SVGID_16_)" d="M-64.8-58.3l7.3,2.3c-1.1,4.1-3,7.1-5.6,9.1c-2.6,2-5.9,3-9.9,3c-5,0-9-1.7-12.2-5.1
				c-3.2-3.4-4.8-8-4.8-13.9c0-6.2,1.6-11,4.8-14.5c3.2-3.4,7.4-5.1,12.7-5.1c4.6,0,8.3,1.3,11.1,4c1.7,1.6,3,3.9,3.8,6.9l-7.5,1.8
				c-0.4-1.9-1.4-3.5-2.8-4.6c-1.4-1.1-3.1-1.7-5.1-1.7c-2.8,0-5,1-6.7,3c-1.7,2-2.6,5.2-2.6,9.6c0,4.7,0.8,8.1,2.5,10.1
				c1.7,2,3.9,3,6.6,3c2,0,3.7-0.6,5.2-1.9C-66.4-53.5-65.4-55.5-64.8-58.3"/>
			<polyline clip-path="url(#SVGID_16_)" points="-42.3,-44.5 -42.3,-75.5 -53.4,-75.5 -53.4,-81.9 -23.7,-81.9 -23.7,-75.5 
				-34.8,-75.5 -34.8,-44.5 -42.3,-44.5 			"/>
			<polyline clip-path="url(#SVGID_16_)" points="-17.3,-44.5 -17.3,-81.9 10.3,-81.9 10.3,-75.5 -9.8,-75.5 -9.8,-67.3 9,-67.3 
				9,-61 -9.8,-61 -9.8,-50.8 11.1,-50.8 11.1,-44.5 -17.3,-44.5 			"/>
			<polyline clip-path="url(#SVGID_16_)" points="18.9,-44.5 18.9,-81.9 30.2,-81.9 37,-56.4 43.7,-81.9 55,-81.9 55,-44.5 
				48,-44.5 48,-73.9 40.6,-44.5 33.3,-44.5 25.9,-73.9 25.9,-44.5 18.9,-44.5 			"/>
			<path clip-path="url(#SVGID_16_)" d="M64.2-81.9h7.5v14.9h10.1c2.7,0,4.9,0.4,6.8,1.1c1.9,0.7,3.5,2,4.8,3.9
				c1.3,1.8,1.9,4,1.9,6.4c0,2.5-0.7,4.7-2,6.5c-1.3,1.8-2.8,3-4.4,3.6c-1.6,0.6-4,0.9-7.1,0.9H64.2V-81.9 M71.8-50.8h7.4
				c2.3,0,4-0.1,4.9-0.3c0.9-0.2,1.7-0.8,2.5-1.6c0.7-0.8,1.1-1.8,1.1-3c0-1.7-0.6-2.9-1.8-3.7c-1.2-0.8-3.3-1.2-6.4-1.2h-7.7V-50.8
				z M99.7-81.9h7.5v37.3h-7.5V-81.9z"/>
		</g>
	</g>
</g>
<g display="none">
	<defs>
		<rect id="SVGID_17_" x="-294.3" y="-287.2" width="595" height="300"/>
	</defs>
	<clipPath id="SVGID_18_" display="inline">
		<use xlink:href="#SVGID_17_"  overflow="visible"/>
	</clipPath>
	<g display="inline" clip-path="url(#SVGID_18_)">
		<defs>
			<rect id="SVGID_19_" x="-294" y="-287.6" width="591.8" height="300.4"/>
		</defs>
		<clipPath id="SVGID_20_">
			<use xlink:href="#SVGID_19_"  overflow="visible"/>
		</clipPath>
		<g clip-path="url(#SVGID_20_)">
			<defs>
				<rect id="SVGID_21_" x="-294.3" y="-287.2" width="595" height="300"/>
			</defs>
			<clipPath id="SVGID_22_">
				<use xlink:href="#SVGID_21_"  overflow="visible"/>
			</clipPath>
			<g clip-path="url(#SVGID_22_)">
				<defs>
					<rect id="SVGID_23_" x="-295.2" y="-215.8" width="154" height="229"/>
				</defs>
				<clipPath id="SVGID_24_">
					<use xlink:href="#SVGID_23_"  overflow="visible"/>
				</clipPath>
				<path clip-path="url(#SVGID_24_)" fill="#ED1C24" d="M-176.6,12.8c-12.2,0-22.8-5.1-31.3-15.2c-8.6-10.2-13-22.7-13-37.3
					c0-14.6,4.4-27.1,13-37.3c8.6-10.1,19.1-15.2,31.3-15.2c5.8,0,11.5,1.4,16.8,4.1c5.4,2.7,10.1,6.6,14.2,11.4
					c2.3,2.7,3.5,6,3.5,10c0,4.1-1.2,7.4-3.5,10.2c-2.3,2.7-5.1,4-8.4,4c-3.3,0-6-1.3-8.2-4c-4.1-4.8-9-7.3-14.5-7.3
					c-5.7,0-10.6,2.4-14.6,7.1c-4,4.6-6,10.3-6,16.9c0,6.5,2,12.2,6,16.9c4,4.7,8.9,7.1,14.6,7.1c5.8,0,10.7-2.4,14.5-7.2
					c2.3-2.7,5-4.1,8.1-4.1c3.3,0,6,1.3,8.4,4c2.4,2.8,3.5,6.1,3.5,10.2c0,4.1-1.1,7.4-3.5,10.1c-4,4.7-8.8,8.5-14.2,11.3
					C-165,11.4-170.7,12.8-176.6,12.8"/>
				<path clip-path="url(#SVGID_24_)" fill="#ED1C24" d="M-246.5-114.5c-3.3,0-6-1.3-8.4-4c-2.4-2.7-3.5-6-3.5-10v-59h-21.5
					c-3.3,0-8.7-1.3-11-4c-2.4-2.7-3.5-6-3.5-10c0-4,1.1-7.3,3.5-10c2.3-2.7,7.7-4,11-4h66.7c3.3,0,8.6,1.3,11,4
					c2.4,2.8,3.5,6,3.5,10c0,4-1.1,7.3-3.5,10c-2.3,2.7-7.6,4-11,4h-21.5v59c0,4-1.2,7.3-3.5,10
					C-240.4-115.8-243.2-114.5-246.5-114.5"/>
			</g>
		</g>
	</g>
</g>
<g display="none">
	<defs>
		<rect id="SVGID_25_" x="-294.3" y="-287.2" width="595" height="300"/>
	</defs>
	<clipPath id="SVGID_26_" display="inline">
		<use xlink:href="#SVGID_25_"  overflow="visible"/>
	</clipPath>
	<g display="inline" clip-path="url(#SVGID_26_)">
		<defs>
			<rect id="SVGID_27_" x="-295.2" y="-287.8" width="596" height="301"/>
		</defs>
		<clipPath id="SVGID_28_">
			<use xlink:href="#SVGID_27_"  overflow="visible"/>
		</clipPath>
		<path clip-path="url(#SVGID_28_)" fill="#ED1C24" d="M-162.6-186.6c-3.3,0-6.1-1.3-8.4-4c-2.4-2.7-3.5-6-3.5-10v-59H-196
			c-3.3,0-8.7-1.3-11-4c-2.4-2.8-3.5-6-3.5-10c0-4,1.1-7.3,3.5-10c2.3-2.7,7.7-4,11-4h66.7c3.3,0,8.7,1.3,11,4c2.4,2.8,3.5,6,3.5,10
			s-1.2,7.3-3.5,10c-2.3,2.7-7.7,4-11,4h-21.5v59c0,4-1.1,7.3-3.5,10C-156.6-187.9-159.3-186.6-162.6-186.6"/>
	</g>
</g>
<g>
	<path fill="#FFFFFF" d="M2.8,37.4l3.1-14.1H0l2.3-11.1h6.4L11.3,0h14.9l-2.6,12.2h9.8l-2.3,11.1h-9.8l-2.5,12.1
		c-0.2,0.7-0.3,1.8-0.3,2.2c0,3.5,3.4,4.1,6.8,4.1c1.4,0,2.4-0.1,2.4-0.1l-2.6,12.4c0,0-2.3,0.2-4.1,0.2c-10.2,0-18.7-3.8-18.7-13.6
		C2.3,39.7,2.5,38.6,2.8,37.4z"/>
	<path fill="#FFFFFF" d="M44.2,37.4l3.1-14.1h-5.8l2.3-11.1h6.4L52.7,0h14.9l-2.6,12.2h9.8l-2.3,11.1h-9.8l-2.5,12.1
		c-0.2,0.7-0.3,1.8-0.3,2.2c0,3.5,3.4,4.1,6.8,4.1c1.3,0,2.4-0.1,2.4-0.1l-2.6,12.4c0,0-2.3,0.2-4.1,0.2c-10.2,0-18.7-3.8-18.7-13.6
		C43.7,39.7,43.9,38.6,44.2,37.4z"/>
	<path fill="#FFFFFF" d="M85.5,39.6c0,0,4.8,3.8,11.7,3.8c2.4,0,5-0.7,5-2.1c0-3.8-18.4-4.5-18.4-17c0-8.2,9.5-13.8,19.4-13.8
		c11.2,0,17.5,4.9,17.5,4.9l-6.7,9.7c0,0-3.9-3-10.8-3c-2.3,0-5,0.7-5,2.2c0,3.3,18.4,4.2,18.4,17c0,8.2-7.9,13.7-19.5,13.7
		c-11.5,0-19.4-6.2-19.4-6.2L85.5,39.6z"/>
	<path fill="#FFFFFF" d="M129.5,59.4c2.7,0,5.9-0.7,8.4-4.3l1.3-2l-10.9-41.6h16.2l3.8,21c0.5,2.3,0.5,6.3,0.5,6.3h0.2
		c0,0,1.6-3.7,2.8-6l10.3-21.3h17.5l-29,47c-5.8,9.3-13.8,12.8-20.2,12.8c-6.8,0-12.1-3.3-12.1-3.3l6.7-9.9
		C124.9,58,126.8,59.4,129.5,59.4z"/>
	<path fill="#FFFFFF" d="M183.1,40.4h14.8l-2.8,13.5h-14.8L183.1,40.4z"/>
	<path fill="#FFFFFF" d="M219.6,11.5h14.9l-1.5,7.2c-0.3,1.4-0.7,2.6-0.7,2.6h0.1c3-5.8,9.5-10.6,16.1-10.6c1.5,0,2.7,0.2,2.7,0.2
		l-3,14c0,0-1.2-0.2-3.1-0.2c-4.7,0-13.5,3.4-15.9,14.8l-3.1,14.4h-15.6L219.6,11.5z"/>
	<path fill="#FFFFFF" d="M256.4,38.2l5.7-26.7h15.6l-5.2,24.4c-0.2,1-0.3,1.9-0.3,2.5c0,2.6,1.3,3.6,4.1,3.6
		c5.9,0,10.8-5.5,12.1-11.7l4-18.8h15.6l-9,42.5h-15l0.5-2.1c0.5-2.1,1.2-4.2,1.2-4.2h-0.2c-2.6,3.8-8.5,7.3-14.9,7.3
		c-8,0-14.6-3.2-14.6-12C255.8,41.5,256,39.9,256.4,38.2z"/>
</g>
</svg>
